<mxfile host="app.diagrams.net" modified="2023-11-22T05:40:05.847Z" agent="Mozilla/5.0 (Windows NT 10.0; Win64; x64) AppleWebKit/537.36 (KHTML, like Gecko) Chrome/119.0.0.0 Safari/537.36" etag="a7QxcUDH2DUNOQHu1dhF" version="22.1.3" type="github">
  <diagram name="第 1 页" id="CNPN29gQGGgicb1FF7h-">
    <mxGraphModel dx="548" dy="330" grid="0" gridSize="10" guides="1" tooltips="1" connect="1" arrows="1" fold="1" page="1" pageScale="1" pageWidth="827" pageHeight="1169" math="0" shadow="0">
      <root>
        <mxCell id="0" />
        <mxCell id="1" parent="0" />
      </root>
    </mxGraphModel>
  </diagram>
</mxfile>
